<mxfile host="Electron" agent="Mozilla/5.0 (Windows NT 10.0; Win64; x64) AppleWebKit/537.36 (KHTML, like Gecko) draw.io/26.2.2 Chrome/134.0.6998.178 Electron/35.1.2 Safari/537.36" version="26.2.2">
  <diagram name="Page-1" id="EpyXyhaI-eAq9YeUHOUQ">
    <mxGraphModel dx="736" dy="438" grid="1" gridSize="10" guides="1" tooltips="1" connect="1" arrows="1" fold="1" page="1" pageScale="1" pageWidth="1600" pageHeight="1200" math="0" shadow="0">
      <root>
        <mxCell id="0" />
        <mxCell id="1" parent="0" />
        <mxCell id="tH4jzxMNzPavQ3EDwI9U-31" style="edgeStyle=orthogonalEdgeStyle;rounded=0;orthogonalLoop=1;jettySize=auto;html=1;entryX=0.5;entryY=0;entryDx=0;entryDy=0;" edge="1" parent="1" source="tH4jzxMNzPavQ3EDwI9U-1" target="tH4jzxMNzPavQ3EDwI9U-29">
          <mxGeometry relative="1" as="geometry" />
        </mxCell>
        <mxCell id="tH4jzxMNzPavQ3EDwI9U-1" value="Controller" style="rounded=0;whiteSpace=wrap;html=1;fillColor=#FFFFCC;" vertex="1" parent="1">
          <mxGeometry x="400" y="360" width="400" height="30" as="geometry" />
        </mxCell>
        <mxCell id="tH4jzxMNzPavQ3EDwI9U-48" style="edgeStyle=orthogonalEdgeStyle;rounded=0;orthogonalLoop=1;jettySize=auto;html=1;entryX=1;entryY=0.5;entryDx=0;entryDy=0;" edge="1" parent="1" source="tH4jzxMNzPavQ3EDwI9U-3" target="tH4jzxMNzPavQ3EDwI9U-1">
          <mxGeometry relative="1" as="geometry">
            <Array as="points">
              <mxPoint x="840" y="375" />
            </Array>
          </mxGeometry>
        </mxCell>
        <mxCell id="tH4jzxMNzPavQ3EDwI9U-3" value="Timer callback" style="html=1;verticalLabelPosition=middle;align=left;labelBackgroundColor=none;verticalAlign=middle;strokeWidth=1;strokeColor=default;shadow=0;dashed=0;shape=mxgraph.ios7.icons.stopwatch;fillColor=#CCCCFF;labelPosition=right;spacing=5;" vertex="1" parent="1">
          <mxGeometry x="820" y="405" width="40" height="40" as="geometry" />
        </mxCell>
        <mxCell id="tH4jzxMNzPavQ3EDwI9U-4" value="&lt;font&gt;GameModel&lt;/font&gt;" style="rounded=0;whiteSpace=wrap;html=1;fillColor=#FFCCCC;strokeColor=default;fontFamily=Courier New;" vertex="1" parent="1">
          <mxGeometry x="400" y="260" width="190" height="30" as="geometry" />
        </mxCell>
        <mxCell id="tH4jzxMNzPavQ3EDwI9U-5" value="&lt;font&gt;BlockView&lt;/font&gt;" style="rounded=0;whiteSpace=wrap;html=1;fillColor=#CCFFCC;fontFamily=Courier New;" vertex="1" parent="1">
          <mxGeometry x="510" y="310" width="80" height="30" as="geometry" />
        </mxCell>
        <mxCell id="tH4jzxMNzPavQ3EDwI9U-11" value="&lt;font&gt;MarkerRenderer&lt;/font&gt;" style="rounded=0;whiteSpace=wrap;html=1;fillColor=#CCFFCC;fontFamily=Courier New;" vertex="1" parent="1">
          <mxGeometry x="400" y="410" width="120" height="30" as="geometry" />
        </mxCell>
        <mxCell id="tH4jzxMNzPavQ3EDwI9U-46" style="edgeStyle=orthogonalEdgeStyle;rounded=0;orthogonalLoop=1;jettySize=auto;html=1;" edge="1" parent="1" source="tH4jzxMNzPavQ3EDwI9U-17" target="tH4jzxMNzPavQ3EDwI9U-3">
          <mxGeometry relative="1" as="geometry" />
        </mxCell>
        <mxCell id="tH4jzxMNzPavQ3EDwI9U-17" value="" style="rounded=0;whiteSpace=wrap;html=1;fillColor=#CCFFFF;" vertex="1" parent="1">
          <mxGeometry x="400" y="460" width="400" height="40" as="geometry" />
        </mxCell>
        <mxCell id="tH4jzxMNzPavQ3EDwI9U-16" value="" style="shape=image;aspect=fixed;image=data:image/svg+xml,PD94bWwgdmVyc2lvbj0iMS4wIiBlbmNvZGluZz0iVVRGLTgiPz4KPCEtLSBVcGxvYWRlZCB0bzogU1ZHIFJlcG8sIHd3dy5zdmdyZXBvLmNvbSwgR2VuZXJhdG9yOiBTVkcgUmVwbyBNaXhlciBUb29scyAtLT4KPHN2ZyB3aWR0aD0iODAwcHgiIGhlaWdodD0iODAwcHgiIHZpZXdCb3g9IjAgLTE0NCA1MTIgNTEyIiB2ZXJzaW9uPSIxLjEiIHhtbG5zPSJodHRwOi8vd3d3LnczLm9yZy8yMDAwL3N2ZyIgeG1sbnM6eGxpbms9Imh0dHA6Ly93d3cudzMub3JnLzE5OTkveGxpbmsiIHByZXNlcnZlQXNwZWN0UmF0aW89InhNaWRZTWlkIj4KICAgIDxnPgogICAgICAgIDxwYXRoIGQ9Ik04My45NjI4MzcsNjcuMDcxMjE1NyBDODQuMTY2NTc5Myw2Ni45NzE2NTY0IDg0LjM3MTU0MTcsNjYuODczMjk0MyA4NC41Nzc3MjM5LDY2Ljc3NjEyOTkgQzkwLjI3NTk4NTEsNjQuMDkwMDM0IDk2LjkxMTY5NTcsNjIuNzQ0NTAwNyAxMDQuNDgyODY4LDYyLjc0NDUwMDcgQzExMi4wNTEwNTcsNjIuNzQ0NTAwNyAxMTguNjg3MjY1LDY0LjA5MDUzMSAxMjQuMzg1MDI5LDY2Ljc3NjEyOTkgQzEzMC4wODI3OTMsNjkuNDYxMjMxNyAxMzQuODQ5MDcyLDczLjA2MDkxODMgMTM4LjY3NjkwOCw3Ny41Njc3MzM5IEMxNDIuNTA0NzQ0LDgyLjA3NDU0OTUgMTQ1LjM3ODcyNyw4Ny4yNTU4NzE0IDE0Ny4yOTIzOTcsOTMuMTA1NzM1IEMxNDkuMjA2NTYzLDk4Ljk1NTEwMTUgMTUwLjE2NjM4LDEwNS4wNDQwNDkgMTUwLjE2NjM4LDExMS4zNzIwODIgQzE1MC4xNjYzOCwxMTcuNzAwMTE0IDE0OS4yMDY1NjMsMTIzLjc5MTU0NyAxNDcuMjkyMzk3LDEyOS42NDA5MTQgQzE0NS4zNzg3MjcsMTM1LjQ5MDc3NyAxNDIuNTA0NzQ0LDE0MC42NzE2MDIgMTM4LjY3NjkwOCwxNDUuMTc5NDEyIEMxMzQuODQ5MDcyLDE0OS42ODU3MzEgMTMwLjA4Mjc5MywxNTMuMjYzNTQ3IDEyNC4zODUwMjksMTU1LjkwNjM5OSBDMTE4LjY4NzI2NSwxNTguNTQ2MjY4IDExMi4wNTEwNTcsMTU5Ljg3MDkyNSAxMDQuNDgyODY4LDE1OS44NzA5MjUgQzk2LjkxMjE5MjcsMTU5Ljg3MDkyNSA5MC4yNzU5ODUxLDE1OC41NDY3NjUgODQuNTc3NzIzOSwxNTUuOTA2Mzk5IEM4My4zODQwMTA2LDE1NS4zNTI3MDYgODIuMjMxMTgyNiwxNTQuNzU3OTc2IDgxLjExOTMwMzksMTU0LjEyMjI2OCBDMTEwLjgxMTcyMywxODEuMDQyNDc1IDE2Ny45NzY3MjQsMTk5LjI2ODE1OCAyMzMuNjIyNzQzLDE5OS4yNjgxNTggQzI4Ny4wMjA1OCwxOTkuMjY4MTU4IDMzNC44Nzg3MTcsMTg4LjQ1OTE1NyAzNjYuODMyMDI1LDE2OS40NjkwOTUgQzMzMS44NjMwNzIsMjAxLjI2MjM1MSAyNjkuNDg4Mzg3LDIyMy42ODc1NzMgMTk4LjI2OTU2NiwyMjMuNjc1NjQ0IEM4OC43NTg0NzAxLDIyMy42NjA3MzIgLTAuMDA5NDQ0MDgyNTUsMTczLjU3MTgwNCAtMi44NDIxNzA5NGUtMTQsMTExLjgwNzAwNyBDMC4wMDk0NDQwODI1NSw1MC4wNDEyMTU2IDg4Ljc5Mzc2MTIsLTAuMDE3MzkyNDYxIDE5OC4zMDQzNiw0LjUzMzE0MTY5ZS0wNiBDMjY5LjgwNzQ5NywwLjAxMDkzOTc4NjYgMzMyLjM0NDcyMSwyMi41MDc3Mzg1IDM2Ny4yMjMyMDksNTQuNTI0NjY5NSBDMzM1LjI2ODkwNywzNS40MTU4MTExIDI4Ny4yMTY0MjEsMjQuNDA2NDk2MiAyMzMuNjIyNzQzLDI0LjQwNjQ5NjIgQzE3MC4wMTQxOTgsMjQuNDA2NDk2MiAxMTQuMzY4Mzg1LDQxLjUxODM4NDYgODMuOTYyODQ1OCw2Ny4wNzEyMDgzIFogTTczLjMxOTg4MDQsMTI1LjI2NjMxNSBDNzQuNTY4OTg0NiwxMjkuODIxODQzIDc2LjUzMDM3MTQsMTMzLjkyMTA3MSA3OS4yMDYwMjkxLDEzNy41NjQwMDIgQzgxLjg3OTY5ODYsMTQxLjIwODQyNCA4NS4zMTE4NzcsMTQ0LjEzNjU4NiA4OS41MDQwNTU2LDE0Ni4zNTA0NzggQzkzLjY5Mjc1NDcsMTQ4LjU2MzM3NiA5OC42ODQ2OTc5LDE0OS42NjczMzkgMTA0LjQ4Mjg2OCwxNDkuNjY3MzM5IEMxMTAuMjc4NTUyLDE0OS42NjczMzkgMTE1LjI2OTk5OCwxNDguNTYzMzc2IDExOS40NjIxNzcsMTQ2LjM1MDQ3OCBDMTIzLjY1MDg3NiwxNDQuMTM2NTg2IDEyNy4wODM1NTEsMTQxLjIwODQyNCAxMjkuNzU5NzA2LDEzNy41NjQwMDIgQzEzMi40MzI4NzgsMTMzLjkyMTA3MSAxMzQuMzkzNzY4LDEyOS44MjE4NDMgMTM1LjY0MjM3NSwxMjUuMjY2MzE1IEMxMzYuODkwOTgyLDEyMC43MTAyOTEgMTM3LjUxNTc4MywxMTYuMDkwMTQ3IDEzNy41MTU3ODMsMTExLjQwNTM4NSBDMTM3LjUxNTc4MywxMDYuNzIwNjIzIDEzNi44OTA5ODIsMTAyLjEwMzk1NyAxMzUuNjQyMzc1LDk3LjU0NzkzMzIgQzEzNC4zOTM3NjgsOTIuOTkxOTA4OSAxMzIuNDMyMzgxLDg4Ljg5MzE3NzEgMTI5Ljc1OTcwNiw4NS4yNDcyNjQyIEMxMjcuMDgzMDU0LDgxLjYwNDgzMDYgMTIzLjY1MDg3Niw3OC42NzcxNjUxIDExOS40NjIxNzcsNzYuNDYzNzcwMyBDMTE1LjI2OTk5OCw3NC4yNTAzNzU2IDExMC4yNzgwNTUsNzMuMTQzNDI5NyAxMDQuNDgyODY4LDczLjE0MzQyOTcgQzk4LjY4NDY5NzksNzMuMTQzNDI5NyA5My42OTMyNTE4LDc0LjI1MDM3NTYgODkuNTA0MDU1Niw3Ni40NjM3NzAzIEM4NS4zMTE4NzcsNzguNjc3NjYyMSA4MS44Nzk2OTg2LDgxLjYwNTMyNzcgNzkuMjA2MDI5MSw4NS4yNDcyNjQyIEM3Ni41Mjk4NzQ0LDg4Ljg5MzE3NzEgNzQuNTY4OTg0Niw5Mi45OTE5MDg5IDczLjMxOTg4MDQsOTcuNTQ3OTMzMiBDNzIuMDcxMjczMywxMDIuMTAzNDYgNzEuNDQ5OTUyMSwxMDYuNzIwNjIzIDcxLjQ0OTk1MjEsMTExLjQwNTM4NSBDNzEuNDQ5OTUyMSwxMTYuMDkwMTQ3IDcyLjA3MTI3MzMsMTIwLjcxMDI5MSA3My4zMTk4ODA0LDEyNS4yNjYzMTUgWiBNMTY4Ljk4NDk1Nyw5OC42NTQ4NzkgTDE2OC45ODQ5NTcsMTA2LjY3NDg5MyBMMTY5LjE4NTc2OCwxMDYuNjc0ODkzIEMxNzAuODI0MDY4LDEwMy4zOTEzMzUgMTczLjM5OTgxNywxMDEuMDAyOTc2IDE3Ni45MTQwMSw5OS41MTI3OTk0IEMxODAuNDI4MjAzLDk4LjAyMzExOTYgMTg0LjI5MDMzNiw5Ny4yNzgwMzEyIDE4OC41MDczNjcsOTcuMjc4MDMxMiBDMTkzLjE4OTE0Nyw5Ny4yNzgwMzEyIDE5Ny4yNjc5OTYsOTguMTE4MDU3NSAyMDAuNzQzOTE2LDk5Ljc5ODExMDEgQzIwNC4yMTczNSwxMDEuNDc4MTYzIDIwNy4xMDM3NiwxMDMuNzQ3MjI4IDIwOS40MDcxMjIsMTA2LjYwNzI5NCBDMjExLjcwOTk4NywxMDkuNDcwODM5IDIxMy40NDUyMTMsMTEyLjc2OTgwNiAyMTQuNjE4NzY0LDExNi41MDc2NzQgQzIxNS43ODkzMzMsMTIwLjI0NzAzNCAyMTYuMzc1ODYxLDEyNC4yMTUwNCAyMTYuMzc1ODYxLDEyOC40MTE2OTIgQzIxNi4zNzU4NjEsMTMyLjYwODg0MSAyMTUuODA3NzI0LDEzNi41NzYzNSAyMTQuNjc3OTE0LDE0MC4zMTY3MDQgQzIxMy41NDUxMjEsMTQ0LjA1NjA2MyAyMTEuODI5MjgsMTQ3LjMxODc0NSAyMDkuNTI1OTE4LDE1MC4xMDI3NjEgQzIwNy4yMjMwNTMsMTUyLjg4Njc3NyAyMDQuMzMzMTY0LDE1NS4wODE3ODEgMjAwLjg1OTczLDE1Ni42ODE4MDcgQzE5Ny4zODI4MTYsMTU4LjI4MjgyOCAxOTMuMzQ1MjIzLDE1OS4wODUwNzggMTg4LjczODk5NiwxNTkuMDg1MDc4IEMxODcuMjU0NzgzLDE1OS4wODUwNzggMTg1LjU5NTExLDE1OC45MzI0ODEgMTgzLjc2MjQ2MSwxNTguNjI4MjgzIEMxODEuOTI3MzI3LDE1OC4zMTk2MSAxODAuMTEzNTY2LDE1Ny44MjYwMzMgMTc4LjMxODY5MywxNTcuMTM5MSBDMTc2LjUyNDMxNywxNTYuNDUyMTY3IDE3NC44MjMzODgsMTU1LjUxMzIyNyAxNzMuMjIzMzYyLDE1NC4zMzA3MjggQzE3MS42MjMzMzYsMTUzLjE0NzIzNSAxNzAuMjc3MzA1LDE1MS42Nzg5MjkgMTY5LjE4NTI3MSwxNDkuOTE4ODUgTDE2OC45ODQ0NiwxNDkuOTE4ODUgTDE2OC45ODQ0NiwxODAuNDczNDQgTDE1OC45NDM5MDksMTgwLjQ3MzQ0IEwxNTguOTQzOTA5LDk4LjY1NDg3OSBMMTY4Ljk4NDk1Nyw5OC42NTQ4NzkgWiBNMjA0LjYyMjQ1MSwxMTkuNjk4NzggQzIwMy44ODE4MzYsMTE3LjA2ODM1NSAyMDIuNzU2MDAyLDExNC43MjI3NDMgMjAxLjIzNzQ5MywxMTIuNjYyNDQyIEMxOTkuNzE4NDg3LDExMC42MDI2MzggMTk3Ljc3MDUyMSwxMDguOTYyMzUgMTk1LjM5NTA4NiwxMDcuNzQyNTcyIEMxOTMuMDE2NjY4LDEwNi41MjIyOTcgMTkwLjIzNDE0MywxMDUuOTExOTExIDE4Ny4wNDMwMzcsMTA1LjkxMTkxMSBDMTgzLjY5MTg3OSwxMDUuOTExOTExIDE4MC44NDk3MDcsMTA2LjU2MjA2MSAxNzguNTE1MDMxLDEwNy44NTg4ODMgQzE3Ni4xNzczNzIsMTA5LjE1NTcwNSAxNzQuMjcwMTY0LDExMC44NTExNjYgMTcyLjc4ODkzNCwxMTIuOTQ4MjQ5IEMxNzEuMzA4MjAyLDExNS4wNDUzMzMgMTcwLjIzODAzOCwxMTcuNDMwNzA5IDE2OS41NzU5NTgsMTIwLjEwMTM5NiBDMTY4LjkxMzg3OCwxMjIuNzcxMDg5IDE2OC41ODQzMjksMTI1LjQ3ODU1OSAxNjguNTg0MzI5LDEyOC4yMjIzMTMgQzE2OC41ODQzMjksMTMxLjEyMjY0MSAxNjguOTMyMjY5LDEzMy45MjU1NDUgMTY5LjYzNTYwNSwxMzYuNjMyMDIgQzE3MC4zMzQ5NjQsMTM5LjM0Mjk2OSAxNzEuNDQ1ODg2LDE0MS43MjQzNjkgMTcyLjk2NDg5MiwxNDMuNzg1MTY3IEMxNzQuNDgyOTA0LDE0NS44NDU0NjggMTc2LjQ0NzI3NCwxNDcuNTA0MTQ3IDE3OC44NjM0NjgsMTQ4Ljc2MTcwMiBDMTgxLjI3OTE2NCwxNTAuMDIwNzQ3IDE4NC4yMDA4NjUsMTUwLjY0OTUyNCAxODcuNjI2NTgyLDE1MC42NDk1MjQgQzE5MS4wNTI3OTYsMTUwLjY0OTUyNCAxOTMuOTE0MzUzLDE1MC4wMDI4NTMgMTk2LjIxMTI1MywxNDguNzA2MDMxIEMxOTguNTA4MTUzLDE0Ny40MDkyMSAyMDAuMzU5NjkxLDE0NS42OTI4NzIgMjAxLjc2MTg4OCwxNDMuNTU1NTI3IEMyMDMuMTYxNjAxLDE0MS40MjE2NjEgMjA0LjE3NDYwMywxMzguOTgxNjA5IDIwNC43OTg5MDYsMTM2LjIzNDM3NSBDMjA1LjQyMDIyOCwxMzMuNDg3MTQxIDIwNS43MzM4NzEsMTMwLjY2NjM0MiAyMDUuNzMzODcxLDEyNy43NjY1MTIgQzIwNS43MzI4NzcsMTI1LjAyMDc2OSAyMDUuMzYyNTY5LDEyMi4zMzIxODggMjA0LjYyMjQ1MSwxMTkuNjk4NzggWiBNMjY3LjU4NjE1LDE1NC4wNTQzNjQgQzI2My4wNDg1MTYsMTU3LjQwODUwNSAyNTcuMzQxODA1LDE1OS4wODUwNzggMjUwLjQ1NzA2OSwxNTkuMDg1MDc4IEMyNDUuNjA2MjksMTU5LjA4NTA3OCAyNDEuMzk4NzAzLDE1OC4zMjI1OTMgMjM3Ljg0MDc2OSwxNTYuNzk4NjE2IEMyMzQuMjc5MzU2LDE1NS4yNzIxNTQgMjMxLjI4NjU3NiwxNTMuMTM0ODA5IDIyOC44NjA5MzgsMTUwLjM4NzU3NSBDMjI2LjQzNTc5NywxNDcuNjQwODM4IDIyNC42MTYwNzEsMTQ0LjM2MDc1OSAyMjMuNDA0NzQzLDE0MC41NDM4NTkgQzIyMi4xOTM5MTIsMTM2LjcyODk0NiAyMjEuNTA5OTYyLDEzMi41Njg1NzkgMjIxLjM1Mjg5MiwxMjguMDY4MjI2IEMyMjEuMzUyODkyLDEyMy41NjczNzUgMjIyLjA1NTczMSwxMTkuNDQ3MjY5IDIyMy40NjczNzIsMTE1LjcwNjQxOSBDMjI0Ljg3NjAzMiwxMTEuOTY2NTYyIDIyNi44NTI4MjcsMTA4LjcyMjc2OCAyMjkuMzk3NzU5LDEwNS45NzU1MzQgQzIzMS45NDIxOTQsMTAzLjIyODMgMjM0Ljk1NzM0MSwxMDEuMDk0OTMyIDIzOC40NDAyMiw5OS41Njc5NzI3IEMyNDEuOTIzMDk4LDk4LjA0MTUxMDcgMjQ1Ljc0MTQ5LDk3LjI3ODAzMTIgMjQ5Ljg5MjkwOSw5Ny4yNzgwMzEyIEMyNTUuMjk1OTE5LDk3LjI3ODAzMTIgMjU5Ljc3NjM5LDk4LjM2OTA3MTMgMjYzLjM0MDI4OSwxMDAuNTQ2MTgxIEMyNjYuOTA1MTgyLDEwMi43MjU3NzYgMjY5Ljc2MzI1OSwxMDUuNDk3MzY1IDI3MS45MTU1MTYsMTA4Ljg2MDk1IEMyNzQuMDY4MjcsMTEyLjIyNzAyIDI3NS41NTg0NDYsMTE1Ljg5Njc5MSAyNzYuMzgwNTc5LDExOS44Njk3NjggQzI3Ny4yMDI3MTEsMTIzLjg0NjIyNCAyNzcuNTM1MjQyLDEyNy42Mjk4MjEgMjc3LjM3ODY2OSwxMzEuMjIzMDQ2IEwyMzEuOTk1ODc2LDEzMS4yMjMwNDYgQzIzMS45MTczNDEsMTMzLjgxMzcwNyAyMzIuMjI4MDAyLDEzNi4yNjk2NjYgMjMyLjkzMDg0LDEzOC41OTM0MDcgQzIzMy42MzM2NzksMTQwLjkxNzE0OCAyMzQuNzYzNDg5LDE0Mi45NzQ0NjcgMjM2LjMyNTczOSwxNDQuNzY1MzY0IEMyMzcuODg4NDg2LDE0Ni41NTUyNjYgMjM5Ljg3NzcwOCwxNDcuOTgwODI1IDI0Mi4yOTk4NjcsMTQ5LjA0NzUwOSBDMjQ0LjcxOTA0MywxNTAuMTE0NjkxIDI0Ny41NjgxNzQsMTUwLjY0ODAzMyAyNTAuODQ2NzYyLDE1MC42NDgwMzMgQzI1NS4wNjAzMTQsMTUwLjY0ODAzMyAyNTguNTE1MzU3LDE0OS42OTUxNzUgMjYxLjIwNzQxNywxNDcuNzg0NDg4IEMyNjMuODk5NDc4LDE0NS44NzQyOTggMjY1LjY3NDk2NiwxNDIuOTcxNDg1IDI2Ni41MzQ4NzQsMTM5LjA3MTU3NiBMMjc2LjM4NzA0LDEzOS4wNzE1NzYgQzI3NS4wNTY0MTksMTQ1LjcwNjI5MiAyNzIuMTIzMjg2LDE1MC43MDAyMjQgMjY3LjU4NjE1LDE1NC4wNTQzNjQgWiBNMjY1LjE1MzU1MywxMTYuMDc3NzIgQzI2NC4yNTczNTksMTE0LjAyMzM4NCAyNjMuMDQ5MDE0LDExMi4yNTEzNzYgMjYxLjUzMDUwNCwxMTAuNzY3NjYgQzI2MC4wMDg1MTYsMTA5LjI4Mzk0NSAyNTguMjE0MTQsMTA4LjEwMzQzNSAyNTYuMTQ4ODY5LDEwNy4yMjY2MjcgQzI1NC4wODExMTIsMTA2LjM0OTgxOCAyNTEuODAwMTE3LDEwNS45MTE0MTQgMjQ5LjMwNTg4NSwxMDUuOTExNDE0IEMyNDYuNzMzMTE4LDEwNS45MTE0MTQgMjQ0LjQxMTM2NSwxMDYuMzQ5ODE4IDI0Mi4zNDY1OSwxMDcuMjI2NjI3IEMyNDAuMjc4ODMzLDEwOC4xMDM0MzUgMjM4LjUwNjMyOCwxMDkuMzAyMzM3IDIzNy4wMjUwOTgsMTEwLjgyMjgzNCBDMjM1LjU0Mzg2OSwxMTIuMzQ2MzEzIDIzNC4zNzM3OTcsMTE0LjExODgxOSAyMzMuNTE2ODcsMTE2LjEzNTg3NiBDMjMyLjY1NzQ1OSwxMTguMTUzNDMgMjMyLjE1MTk1MiwxMjAuMzA1MTkgMjMxLjk5NTM3OSwxMjIuNTg5MTY3IEwyNjYuNzM2MTgyLDEyMi41ODkxNjcgQzI2Ni41Nzg2MTUsMTIwLjMwNTE5IDI2Ni4wNTE3MzUsMTE4LjEzNDU0MiAyNjUuMTUzNTUzLDExNi4wNzc3MiBaIE0yOTMuNDcxMzg2LDk4LjY1NDg3OSBMMjkzLjQ3MTM4NiwxMDguMDUxNzQxIEwyOTMuNjU5NzcsMTA4LjA1MTc0MSBDMjk3LjgxOTY0LDEwMC44NzEyNTYgMzA0LjQxODU2OSw5Ny4yNzgwMzEyIDMxMy40NTE1ODUsOTcuMjc4MDMxMiBDMzE3LjQ1NTM3OSw5Ny4yNzgwMzEyIDMyMC43OTI2MTksOTcuODE0MzU1NyAzMjMuNDY2Mjg5LDk4Ljg4NDUxOTQgQzMyNi4xMzU5ODIsOTkuOTU0NjgzIDMyOC4yOTUxOTcsMTAxLjQ0NDM2MyAzMjkuOTQ1NDI3LDEwMy4zNTUwNSBDMzMxLjU5NTY1NiwxMDUuMjY0NzQzIDMzMi43NTM3OTksMTA3LjUzNjc5IDMzMy40MjE4NDMsMTEwLjE3MzE4IEMzMzQuMDg2OTA1LDExMi44MTAwNjggMzM0LjQyMjkxNiwxMTUuNzMyMjY2IDMzNC40MjI5MTYsMTE4Ljk0MTc2MiBMMzM0LjQyMjkxNiwxNTcuOTA4NTQ0IEwzMjQuMzgyODYyLDE1Ny45MDg1NDQgTDMyNC4zODI4NjIsMTE3LjgyMjM5IEMzMjQuMzgyODYyLDExNC4xNTg1ODMgMzIzLjI4Mzg2OSwxMTEuMjU4MjU2IDMyMS4wOTA4NTQsMTA5LjExODQyNSBDMzE4Ljg5NDg1NiwxMDYuOTgxMDggMzE1Ljg3OTcwOCwxMDUuOTEwOTE3IDMxMi4wNDE5MzEsMTA1LjkxMDkxNyBDMzA4Ljk4NzAxOSwxMDUuOTEwOTE3IDMwNi4zNDExODUsMTA2LjM3MTE5MiAzMDQuMTA3NDExLDEwNy4yODc3NjUgQzMwMS44NzM2MzcsMTA4LjIwNDgzNSAzMDAuMDEyNjU2LDEwOS41MDExNTkgMjk4LjUyNTQ2MSwxMTEuMTgxMjEyIEMyOTcuMDM5MjYxLDExMi44NjEyNjQgMjk1LjkyMTg3NywxMTQuODI2NjI4IDI5NS4xNzgyNzksMTE3LjA3NjgwNSBDMjk0LjQzMTcsMTE5LjMyOTk2NCAyOTQuMDYwODk1LDEyMS43OTE4ODcgMjk0LjA2MDg5NSwxMjQuNDY1NTU3IEwyOTQuMDYwODk1LDE1Ny45MDcwNTMgTDI4NC4wMjA4NDEsMTU3LjkwNzA1MyBMMjg0LjAyMDg0MSw5OC42NTQ4NzkgTDI5My40NzEzODYsOTguNjU0ODc5IFogTTQwMy44MzA0NjEsMTU3LjI2NDM1OCBDMzk5LjI5NjgwNCwxNTkuMTMxODAxIDM5NC43MTg0MTIsMTYwLjA2NzI2MyAzOTAuMTAwMjU2LDE2MC4wNjcyNjMgQzM4Mi44MDg0MywxNjAuMDY3MjYzIDM3Ni4yNTM3NCwxNTguODI0NjIgMzcwLjQzMDcxNywxNTYuMzQ3Nzg1IEMzNjQuNjA2NzAxLDE1My44Njc5NjggMzU5LjY5NzI2OSwxNTAuNDUyNjg5IDM1NS42OTY0NTcsMTQ2LjA5ODk2NyBDMzUxLjY5NTY0NiwxNDEuNzQ4NzI1IDM0OC42Mjk3OTgsMTM2LjYzNTAwMyAzNDYuNDk1OTMzLDEzMC43NjA3ODMgQzM0NC4zNjMwNjEsMTI0Ljg4NzA2MSAzNDMuMjk2Mzc3LDExOC41NTI1NjcgMzQzLjI5NjM3NywxMTEuNzY0NzU3IEMzNDMuMjk2Mzc3LDEwNC44MDU0NjIgMzQ0LjM2MDU3Niw5OC4zNDIyMzAyIDM0Ni40ODc0ODMsOTIuMzc5NTM0NyBDMzQ4LjYxNTM4NCw4Ni40MTkzMjQ1IDM1MS42NzM3NzUsODEuMjIwMTA4NSAzNTUuNjY0NjQ2LDc2Ljc4MDM5NTYgQzM1OS42NTY1MSw3Mi4zNDA2ODI3IDM2NC41NjA0NzQsNjguODYxMjgzOSAzNzAuMzgwMDE4LDY2LjMzNDc0MzMgQzM3Ni4yMDAwNTgsNjMuODExNjgyMSAzODIuNzU0NzQ4LDYyLjU0ODY2MDMgMzkwLjA0NjU3NCw2Mi41NDg2NjAzIEMzOTQuOTM0NjMyLDYyLjU0ODY2MDMgMzk5LjY2NjYxNSw2My4yNjg4OTU5IDQwNC4yNDM1MTUsNjQuNzA3Mzc4NyBDNDA4LjgyMTkwNyw2Ni4xNDc4NDk5IDQxMi45NTQ0MzksNjguMjYzMzI0MyA0MTYuNjQ0NTksNzEuMDUzMzA1MiBDNDIwLjMzMzc0Nyw3My44NDMyODYgNDIzLjM3NzIyNiw3Ny4yODI5MjAyIDQyNS43NzcwMTgsODEuMzY5NzIyNyBDNDI4LjE3NzgwMyw4NS40NTk1MDc1IDQyOS42NDY2MDYsOTAuMTUwMjM0MiA0MzAuMTc5NDUxLDk1LjQ0Nzg2NzQgTDQxMC4xODA4NjEsOTUuNDQ3ODY3NCBDNDA4LjkzNTIzNiw5MC4yMzkyMDc0IDQwNi41MzQ0NTEsODYuMzI5ODU0MyA0MDIuOTc5NDk5LDgzLjcyNDI4MTYgQzM5OS40MjE1NjUsODEuMTE4MjExOSAzOTUuMTExMDg3LDc5LjgxNTQyNTUgMzkwLjA0NjA3Nyw3OS44MTU0MjU1IEMzODUuMzMzOTc3LDc5LjgxNTQyNTUgMzgxLjMzMzE2NSw4MC43MDcxNDU3IDM3OC4wNDUxMzMsODIuNDkxNTgwMyBDMzc0Ljc1NzEwMSw4NC4yNzYwMTQ4IDM3Mi4wODkzOTYsODYuNjcwODM1MyAzNzAuMDQzNTEsODkuNjcyMDY1NCBDMzY3Ljk5ODEyMSw5Mi42NzYyNzc3IDM2Ni41MTA5MjYsOTYuMDkxNTU2MiAzNjUuNTc5OTM4LDk5LjkyMDg4MzIgQzM2NC42NDM5OCwxMDMuNzUwMjEgMzY0LjE4MDIyNiwxMDcuNzA4Mjc1IDM2NC4xODAyMjYsMTExLjc5ODA2IEMzNjQuMTgwMjI2LDExNS43MTYzNiAzNjQuNjQ2OTYyLDExOS41MjM4MTYgMzY1LjU4MTkyNywxMjMuMjIxNDIzIEMzNjYuNTE3ODg1LDEyNi45MTg1MzMgMzY4LjAwODA2MiwxMzAuMjQ3ODIgMzcwLjA1MzQ1MSwxMzMuMjA2ODAxIEMzNzIuMDk4ODQxLDEzNi4xNjQ3ODcgMzc0Ljc2OTUyOCwxMzguNTM0NzU0IDM3OC4wNjM1MjQsMTQwLjMxOTE4OSBDMzgxLjM1NTUzMywxNDIuMTAzNjIzIDM4NS4zNjEzMTUsMTQyLjk5NTg0MSAzOTAuMDgxMzY4LDE0Mi45OTU4NDEgQzM5Ny4wMjE3NzQsMTQyLjk5NTg0MSA0MDIuMzgwNTQ2LDE0MS4yODU5NjUgNDA2LjE2MzY0NiwxMzcuODYzNzI3IEM0MDkuOTQ3NzQxLDEzNC40NDI0ODQgNDEyLjE1MDY5OCwxMjkuNDgxODU2IDQxMi43NzUwMDEsMTIyLjk4MjMzOSBMMzkxLjcwOTIyOSwxMjIuOTgyMzM5IEwzOTEuNzA5MjI5LDEwNy42Nzc0NTcgTDQzMS42NTEyMzcsMTA3LjY3NzQ1NyBMNDMxLjY1MTIzNywxNTcuOTc5MTI2IEw0MTguMzYwOTI3LDE1Ny45NzkxMjYgTDQxNi4yMzMwMjcsMTQ3LjQyNjYwNyBDNDEyLjQ5OTYzMiwxNTIuMTE2ODM2IDQwOC4zNjQxMTgsMTU1LjM5NzQxMiA0MDMuODMwNDYxLDE1Ny4yNjQzNTggWiBNNDY1LjU5Nzc0Myw2NC45MDI3MjIxIEw0NjUuNTk3NzQzLDE0MC42NDEyODIgTDUxMiwxNDAuNjQxMjgyIEw1MTIsMTU3LjkwNzU1IEw0NDQuNzEzMzk3LDE1Ny45MDc1NSBMNDQ0LjcxMzM5Nyw2NC45MDI3MjIxIEw0NjUuNTk3NzQzLDY0LjkwMjcyMjEgWiIgZmlsbD0iIzU1ODZBNCIgZmlsbC1ydWxlPSJub256ZXJvIj4KDTwvcGF0aD4KICAgIDwvZz4KPC9zdmc+;" vertex="1" parent="1">
          <mxGeometry x="570" y="450" width="60" height="60" as="geometry" />
        </mxCell>
        <mxCell id="tH4jzxMNzPavQ3EDwI9U-42" style="edgeStyle=orthogonalEdgeStyle;rounded=0;orthogonalLoop=1;jettySize=auto;html=1;entryX=0.5;entryY=0;entryDx=0;entryDy=0;" edge="1" parent="1" source="tH4jzxMNzPavQ3EDwI9U-29" target="tH4jzxMNzPavQ3EDwI9U-17">
          <mxGeometry relative="1" as="geometry" />
        </mxCell>
        <mxCell id="tH4jzxMNzPavQ3EDwI9U-29" value="&lt;font&gt;LocatorRenderer&lt;/font&gt;" style="rounded=0;whiteSpace=wrap;html=1;fillColor=#CCFFCC;fontFamily=Courier New;" vertex="1" parent="1">
          <mxGeometry x="540" y="410" width="120" height="30" as="geometry" />
        </mxCell>
        <mxCell id="tH4jzxMNzPavQ3EDwI9U-30" value="&lt;font&gt;BlockRenderer&lt;/font&gt;" style="rounded=0;whiteSpace=wrap;html=1;fillColor=#CCFFCC;fontFamily=Courier New;" vertex="1" parent="1">
          <mxGeometry x="680" y="410" width="120" height="30" as="geometry" />
        </mxCell>
        <mxCell id="tH4jzxMNzPavQ3EDwI9U-33" style="edgeStyle=orthogonalEdgeStyle;rounded=0;orthogonalLoop=1;jettySize=auto;html=1;entryX=0.85;entryY=1;entryDx=0;entryDy=0;entryPerimeter=0;startArrow=classic;startFill=1;endArrow=none;" edge="1" parent="1" source="tH4jzxMNzPavQ3EDwI9U-30" target="tH4jzxMNzPavQ3EDwI9U-1">
          <mxGeometry relative="1" as="geometry" />
        </mxCell>
        <mxCell id="tH4jzxMNzPavQ3EDwI9U-35" style="edgeStyle=orthogonalEdgeStyle;rounded=0;orthogonalLoop=1;jettySize=auto;html=1;entryX=0.15;entryY=1;entryDx=0;entryDy=0;entryPerimeter=0;startArrow=classic;startFill=1;endArrow=none;" edge="1" parent="1" source="tH4jzxMNzPavQ3EDwI9U-11" target="tH4jzxMNzPavQ3EDwI9U-1">
          <mxGeometry relative="1" as="geometry" />
        </mxCell>
        <mxCell id="tH4jzxMNzPavQ3EDwI9U-37" style="edgeStyle=orthogonalEdgeStyle;rounded=0;orthogonalLoop=1;jettySize=auto;html=1;entryX=0.15;entryY=0;entryDx=0;entryDy=0;entryPerimeter=0;" edge="1" parent="1" source="tH4jzxMNzPavQ3EDwI9U-11" target="tH4jzxMNzPavQ3EDwI9U-17">
          <mxGeometry relative="1" as="geometry" />
        </mxCell>
        <mxCell id="tH4jzxMNzPavQ3EDwI9U-45" style="edgeStyle=orthogonalEdgeStyle;rounded=0;orthogonalLoop=1;jettySize=auto;html=1;entryX=0.85;entryY=0;entryDx=0;entryDy=0;entryPerimeter=0;" edge="1" parent="1" source="tH4jzxMNzPavQ3EDwI9U-30" target="tH4jzxMNzPavQ3EDwI9U-17">
          <mxGeometry relative="1" as="geometry" />
        </mxCell>
        <mxCell id="tH4jzxMNzPavQ3EDwI9U-50" style="edgeStyle=orthogonalEdgeStyle;rounded=0;orthogonalLoop=1;jettySize=auto;html=1;entryX=0.789;entryY=1;entryDx=0;entryDy=0;entryPerimeter=0;startArrow=classic;startFill=1;endArrow=none;" edge="1" parent="1" source="tH4jzxMNzPavQ3EDwI9U-5" target="tH4jzxMNzPavQ3EDwI9U-4">
          <mxGeometry relative="1" as="geometry" />
        </mxCell>
        <mxCell id="tH4jzxMNzPavQ3EDwI9U-51" style="edgeStyle=orthogonalEdgeStyle;rounded=0;orthogonalLoop=1;jettySize=auto;html=1;entryX=0.375;entryY=0;entryDx=0;entryDy=0;entryPerimeter=0;" edge="1" parent="1" source="tH4jzxMNzPavQ3EDwI9U-5" target="tH4jzxMNzPavQ3EDwI9U-1">
          <mxGeometry relative="1" as="geometry" />
        </mxCell>
        <mxCell id="tH4jzxMNzPavQ3EDwI9U-52" value="" style="endArrow=classic;html=1;rounded=0;entryX=0.25;entryY=1;entryDx=0;entryDy=0;exitX=0.119;exitY=-0.009;exitDx=0;exitDy=0;exitPerimeter=0;" edge="1" parent="1" source="tH4jzxMNzPavQ3EDwI9U-1" target="tH4jzxMNzPavQ3EDwI9U-4">
          <mxGeometry width="50" height="50" relative="1" as="geometry">
            <mxPoint x="600" y="450" as="sourcePoint" />
            <mxPoint x="470" y="320" as="targetPoint" />
          </mxGeometry>
        </mxCell>
        <mxCell id="tH4jzxMNzPavQ3EDwI9U-53" value="&lt;font&gt;AnimationEngine&lt;/font&gt;" style="rounded=0;whiteSpace=wrap;html=1;fillColor=#CCFFCC;fontFamily=Courier New;" vertex="1" parent="1">
          <mxGeometry x="610" y="260" width="190" height="30" as="geometry" />
        </mxCell>
        <mxCell id="tH4jzxMNzPavQ3EDwI9U-54" style="edgeStyle=orthogonalEdgeStyle;rounded=0;orthogonalLoop=1;jettySize=auto;html=1;entryX=0.763;entryY=0;entryDx=0;entryDy=0;entryPerimeter=0;startArrow=classic;startFill=1;" edge="1" parent="1" source="tH4jzxMNzPavQ3EDwI9U-53" target="tH4jzxMNzPavQ3EDwI9U-1">
          <mxGeometry relative="1" as="geometry" />
        </mxCell>
        <mxCell id="tH4jzxMNzPavQ3EDwI9U-60" style="edgeStyle=orthogonalEdgeStyle;rounded=0;orthogonalLoop=1;jettySize=auto;html=1;entryX=0;entryY=0.5;entryDx=0;entryDy=0;" edge="1" parent="1" source="tH4jzxMNzPavQ3EDwI9U-56" target="tH4jzxMNzPavQ3EDwI9U-1">
          <mxGeometry relative="1" as="geometry">
            <Array as="points">
              <mxPoint x="367" y="375" />
            </Array>
          </mxGeometry>
        </mxCell>
        <mxCell id="tH4jzxMNzPavQ3EDwI9U-56" value="Input filter" style="sketch=0;aspect=fixed;pointerEvents=1;shadow=0;dashed=0;html=1;strokeColor=default;labelPosition=left;verticalLabelPosition=middle;verticalAlign=middle;align=right;fillColor=#E6FFCC;shape=mxgraph.mscae.enterprise.filter;spacing=5;" vertex="1" parent="1">
          <mxGeometry x="350" y="410" width="33.34" height="30" as="geometry" />
        </mxCell>
        <mxCell id="tH4jzxMNzPavQ3EDwI9U-58" style="edgeStyle=orthogonalEdgeStyle;rounded=0;orthogonalLoop=1;jettySize=auto;html=1;entryX=0.5;entryY=1;entryDx=0;entryDy=0;entryPerimeter=0;" edge="1" parent="1" source="tH4jzxMNzPavQ3EDwI9U-17" target="tH4jzxMNzPavQ3EDwI9U-56">
          <mxGeometry relative="1" as="geometry" />
        </mxCell>
        <mxCell id="tH4jzxMNzPavQ3EDwI9U-64" style="edgeStyle=orthogonalEdgeStyle;rounded=0;orthogonalLoop=1;jettySize=auto;html=1;entryX=0.25;entryY=1;entryDx=0;entryDy=0;" edge="1" parent="1" source="tH4jzxMNzPavQ3EDwI9U-61" target="tH4jzxMNzPavQ3EDwI9U-17">
          <mxGeometry relative="1" as="geometry" />
        </mxCell>
        <mxCell id="tH4jzxMNzPavQ3EDwI9U-61" value="" style="sketch=0;aspect=fixed;pointerEvents=1;shadow=0;dashed=0;html=1;strokeColor=default;labelPosition=center;verticalLabelPosition=bottom;verticalAlign=top;align=center;fillColor=#9999FF;shape=mxgraph.mscae.enterprise.keyboard" vertex="1" parent="1">
          <mxGeometry x="466.67" y="520" width="66.66" height="40" as="geometry" />
        </mxCell>
        <mxCell id="tH4jzxMNzPavQ3EDwI9U-67" style="edgeStyle=orthogonalEdgeStyle;rounded=0;orthogonalLoop=1;jettySize=auto;html=1;entryX=0.5;entryY=1;entryDx=0;entryDy=0;" edge="1" parent="1" source="tH4jzxMNzPavQ3EDwI9U-65" target="tH4jzxMNzPavQ3EDwI9U-17">
          <mxGeometry relative="1" as="geometry" />
        </mxCell>
        <mxCell id="tH4jzxMNzPavQ3EDwI9U-65" value="" style="sketch=0;aspect=fixed;pointerEvents=1;shadow=0;dashed=0;html=1;strokeColor=default;labelPosition=center;verticalLabelPosition=bottom;verticalAlign=top;align=center;fillColor=#9999FF;shape=mxgraph.mscae.enterprise.mouse" vertex="1" parent="1">
          <mxGeometry x="587.5" y="520" width="25" height="41.67" as="geometry" />
        </mxCell>
        <mxCell id="tH4jzxMNzPavQ3EDwI9U-68" value="" style="verticalLabelPosition=bottom;html=1;verticalAlign=top;align=center;strokeColor=default;fillColor=#9999FF;shape=mxgraph.azure.computer;pointerEvents=1;" vertex="1" parent="1">
          <mxGeometry x="680" y="520" width="40" height="40" as="geometry" />
        </mxCell>
        <mxCell id="tH4jzxMNzPavQ3EDwI9U-71" style="edgeStyle=orthogonalEdgeStyle;rounded=0;orthogonalLoop=1;jettySize=auto;html=1;exitX=0.75;exitY=1;exitDx=0;exitDy=0;entryX=0.5;entryY=0;entryDx=0;entryDy=0;entryPerimeter=0;" edge="1" parent="1" source="tH4jzxMNzPavQ3EDwI9U-17" target="tH4jzxMNzPavQ3EDwI9U-68">
          <mxGeometry relative="1" as="geometry" />
        </mxCell>
        <mxCell id="tH4jzxMNzPavQ3EDwI9U-72" value="Animation" style="shape=message;html=1;html=1;outlineConnect=0;labelPosition=right;verticalLabelPosition=middle;align=left;verticalAlign=middle;fillColor=#CCFFCC;fontFamily=Courier New;spacing=5;" vertex="1" parent="1">
          <mxGeometry x="710" y="315" width="30" height="20" as="geometry" />
        </mxCell>
      </root>
    </mxGraphModel>
  </diagram>
</mxfile>
